<svg width="14" height="18" viewBox="0 0 14 18" fill="none" xmlns="http://www.w3.org/2000/svg">
<path d="M11.8125 2.25H9C9 1.00898 7.99102 0 6.75 0C5.50898 0 4.5 1.00898 4.5 2.25H1.6875C0.755859 2.25 0 3.00586 0 3.9375V16.3125C0 17.2441 0.755859 18 1.6875 18H11.8125C12.7441 18 13.5 17.2441 13.5 16.3125V3.9375C13.5 3.00586 12.7441 2.25 11.8125 2.25ZM6.75 1.40625C7.21758 1.40625 7.59375 1.78242 7.59375 2.25C7.59375 2.71758 7.21758 3.09375 6.75 3.09375C6.28242 3.09375 5.90625 2.71758 5.90625 2.25C5.90625 1.78242 6.28242 1.40625 6.75 1.40625ZM11.0109 9.55547L5.98359 14.5406C5.81836 14.7059 5.55117 14.7023 5.38594 14.5371L2.48203 11.6086C2.3168 11.4434 2.32031 11.1762 2.48555 11.0109L3.48398 10.0195C3.64922 9.8543 3.91641 9.85781 4.08164 10.023L5.69883 11.6543L9.42539 7.95586C9.59063 7.79063 9.85781 7.79414 10.023 7.95937L11.0145 8.95781C11.1797 9.12656 11.1762 9.39023 11.0109 9.55547Z" fill="#00AB3A"/>
</svg>
