<svg width="14" height="18" viewBox="0 0 14 18" fill="none" xmlns="http://www.w3.org/2000/svg">
<g clip-path="url(#clip0_1_12)">
<path d="M13.5 3.9375V16.3125C13.5 17.2445 12.7445 18 11.8125 18H1.6875C0.755508 18 0 17.2445 0 16.3125V3.9375C0 3.00551 0.755508 2.25 1.6875 2.25H4.5C4.5 1.00934 5.50934 0 6.75 0C7.99066 0 9 1.00934 9 2.25H11.8125C12.7445 2.25 13.5 3.00551 13.5 3.9375ZM6.75 1.40625C6.284 1.40625 5.90625 1.784 5.90625 2.25C5.90625 2.716 6.284 3.09375 6.75 3.09375C7.216 3.09375 7.59375 2.716 7.59375 2.25C7.59375 1.784 7.216 1.40625 6.75 1.40625ZM10.125 5.41406V4.71094C10.125 4.65499 10.1028 4.60134 10.0632 4.56178C10.0237 4.52222 9.97001 4.5 9.91406 4.5H3.58594C3.52999 4.5 3.47634 4.52222 3.43678 4.56178C3.39722 4.60134 3.375 4.65499 3.375 4.71094V5.41406C3.375 5.47001 3.39722 5.52366 3.43678 5.56322C3.47634 5.60278 3.52999 5.625 3.58594 5.625H9.91406C9.97001 5.625 10.0237 5.60278 10.0632 5.56322C10.1028 5.52366 10.125 5.47001 10.125 5.41406Z" fill="#8F8F8F"/>
</g>
<defs>
<clipPath id="clip0_1_12">
<rect width="13.5" height="18" fill="white"/>
</clipPath>
</defs>
</svg>
