<svg width="18" height="18" viewBox="0 0 18 18" fill="none" xmlns="http://www.w3.org/2000/svg">
<rect width="18" height="18" rx="1" fill="#8F8F8F"/>
<path d="M4 9.46318V8.10641H10.1392V9.46318H7.85069V15.8898H6.28852V9.46318H4Z" fill="#272822"/>
<path d="M14.3831 10.3449C14.3539 10.0383 14.2286 9.80016 14.0071 9.6304C13.7857 9.46065 13.4852 9.37577 13.1056 9.37577C12.8477 9.37577 12.6299 9.41378 12.4523 9.48979C12.2746 9.56326 12.1384 9.66588 12.0435 9.79762C11.951 9.92937 11.9048 10.0789 11.9048 10.2461C11.8999 10.3854 11.9279 10.507 11.9887 10.6109C12.052 10.7148 12.1384 10.8048 12.2479 10.8808C12.3574 10.9542 12.4839 11.0188 12.6275 11.0746C12.771 11.1278 12.9243 11.1734 13.0873 11.2114L13.7589 11.3786C14.085 11.4546 14.3843 11.556 14.6568 11.6827C14.9293 11.8093 15.1654 11.9652 15.3649 12.1501C15.5644 12.3351 15.719 12.553 15.8285 12.8038C15.9404 13.0546 15.9976 13.3422 16 13.6665C15.9976 14.1428 15.8808 14.5558 15.6496 14.9055C15.4209 15.2526 15.0899 15.5224 14.6568 15.715C14.2261 15.905 13.7066 16 13.0983 16C12.4948 16 11.9692 15.9037 11.5215 15.7112C11.0762 15.5186 10.7283 15.2336 10.4776 14.8561C10.2294 14.476 10.0993 14.006 10.0871 13.4461H11.6164C11.6334 13.707 11.7052 13.9249 11.8318 14.0998C11.9607 14.2721 12.1323 14.4025 12.3464 14.4912C12.563 14.5774 12.8075 14.6204 13.08 14.6204C13.3477 14.6204 13.5801 14.5799 13.7772 14.4988C13.9767 14.4177 14.1312 14.305 14.2407 14.1606C14.3502 14.0162 14.405 13.8502 14.405 13.6627C14.405 13.4879 14.3551 13.3409 14.2553 13.2219C14.158 13.1028 14.0144 13.0014 13.8246 12.9178C13.6373 12.8342 13.4073 12.7582 13.1348 12.6898L12.3209 12.477C11.6906 12.3173 11.193 12.0678 10.828 11.7283C10.463 11.3888 10.2818 10.9314 10.2842 10.3563C10.2818 9.88504 10.4022 9.47332 10.6455 9.12114C10.8913 8.76896 11.2283 8.49406 11.6566 8.29644C12.0848 8.09881 12.5715 8 13.1165 8C13.6713 8 14.1556 8.09881 14.5692 8.29644C14.9853 8.49406 15.3089 8.76896 15.5401 9.12114C15.7713 9.47332 15.8905 9.88123 15.8978 10.3449H14.3831Z" fill="#272822"/>
</svg>
